<svg viewBox="0 0 100 100" xmlns="http://www.w3.org/2000/svg">
      <defs>
        <linearGradient id="logo-gradient" x1="0%" y1="0%" x2="100%" y2="100%">
          <stop offset="0%" style="stop-color:#4F46E5;" />
          <stop offset="100%" style="stop-color:#0EA5E9;" />
        </linearGradient>
      </defs>

      <!-- Camera Lens Outer Ring -->
      <circle cx="50" cy="50" r="45" fill="none" stroke="url(#logo-gradient)" stroke-width="8"/>

      <!-- Aperture Blades -->
      <path fill="url(#logo-gradient)" d="M50 15 L 68 40 L 59 40 L 50 25 Z" />
      <path fill="url(#logo-gradient)" d="M50 15 L 68 40 L 59 40 L 50 25 Z" transform="rotate(60 50 50)" />
      <path fill="url(#logo-gradient)" d="M50 15 L 68 40 L 59 40 L 50 25 Z" transform="rotate(120 50 50)" />
      <path fill="url(#logo-gradient)" d="M50 15 L 68 40 L 59 40 L 50 25 Z" transform="rotate(180 50 50)" />
      <path fill="url(#logo-gradient)" d="M50 15 L 68 40 L 59 40 L 50 25 Z" transform="rotate(240 50 50)" />
      <path fill="url(#logo-gradient)" d="M50 15 L 68 40 L 59 40 L 50 25 Z" transform="rotate(300 50 50)" />

      <!-- AI Sparkle in the center -->
      <path
        d="M 50 46 L 51.5 49 L 54.5 49.5 L 51.5 50 L 50 53 L 48.5 50 L 45.5 49.5 L 48.5 49 Z"
        fill="white"
        style="filter: drop-shadow(0 0 3px #FFFFFF);"
      />
    </svg>